<svg width="216" height="216" fill="none" xmlns="http://www.w3.org/2000/svg"><g clip-path="url(#clip0_503_34)"><path d="M78 78l22 22H0l16.5-22H78z" fill="url(#paint0_linear_503_34)"/><path d="M138.063 137.018L116.081 115l100 .082-16.518 21.986-61.5-.05z" fill="url(#paint1_linear_503_34)"/><path d="M136 78l-20 22V.5L136 17v61z" fill="url(#paint2_linear_503_34)"/><path d="M78.085 137.077L97.999 115l.385 99.5-20.064-16.423-.235-61z" fill="url(#paint3_linear_503_34)"/><g filter="url(#filter0_f_503_34)"><circle cx="111.5" cy="95.5" r="69" stroke="#000" stroke-width="11"/></g><circle cx="107.5" cy="104.5" r="69" stroke="url(#paint4_linear_503_34)" stroke-width="11"/><path d="M78 17.5L100 0v100L78 78V17.5z" fill="url(#paint5_linear_503_34)"/><path d="M136 78l-20 22h97l-16.005-22H136z" fill="url(#paint6_linear_503_34)"/><path d="M138.014 197.518L116 215l.081-100 21.982 22.018-.049 60.5z" fill="url(#paint7_linear_503_34)"/><path d="M78.085 137.077L97.999 115 1 115.375l16.09 21.938 60.995-.236z" fill="url(#paint8_linear_503_34)"/></g><defs><linearGradient id="paint0_linear_503_34" x1="100" y1="89" x2="0" y2="89" gradientUnits="userSpaceOnUse"><stop stop-color="#D488EA"/><stop offset="1" stop-color="#5B33EA"/></linearGradient><linearGradient id="paint1_linear_503_34" x1="116.072" y1="126" x2="216.072" y2="126.082" gradientUnits="userSpaceOnUse"><stop stop-color="#D186E9"/><stop offset="1" stop-color="#6036F8"/></linearGradient><linearGradient id="paint2_linear_503_34" x1="126" y1="100" x2="126" y2=".5" gradientUnits="userSpaceOnUse"><stop stop-color="#7FE9F0"/><stop offset="1" stop-color="#0046B1"/></linearGradient><linearGradient id="paint3_linear_503_34" x1="87.999" y1="115.039" x2="88.384" y2="214.538" gradientUnits="userSpaceOnUse"><stop stop-color="#7BE7F2"/><stop offset="1" stop-color="#004AB6"/></linearGradient><linearGradient id="paint4_linear_503_34" x1="45" y1="146" x2="166" y2="58" gradientUnits="userSpaceOnUse"><stop stop-color="#2265F6"/><stop offset="1" stop-color="#224B8F"/></linearGradient><linearGradient id="paint5_linear_503_34" x1="89" y1="0" x2="89" y2="100" gradientUnits="userSpaceOnUse"><stop stop-color="#DF90FB"/><stop offset="1" stop-color="#5B30F1"/></linearGradient><linearGradient id="paint6_linear_503_34" x1="116" y1="89" x2="213" y2="89" gradientUnits="userSpaceOnUse"><stop offset=".01" stop-color="#0051BF"/><stop offset="1" stop-color="#89FBFF"/></linearGradient><linearGradient id="paint7_linear_503_34" x1="127" y1="215.009" x2="127.081" y2="115.009" gradientUnits="userSpaceOnUse"><stop stop-color="#C780E0"/><stop offset="1" stop-color="#623AF7"/></linearGradient><linearGradient id="paint8_linear_503_34" x1="98.042" y1="126" x2="1.043" y2="126.375" gradientUnits="userSpaceOnUse"><stop stop-color="#0046B1"/><stop offset="1" stop-color="#7AEDFF"/></linearGradient><clipPath id="clip0_503_34"><path fill="#fff" d="M0 0h216v216H0z"/></clipPath><filter id="filter0_f_503_34" x="24" y="8" width="175" height="175" filterUnits="userSpaceOnUse" color-interpolation-filters="sRGB"><feFlood flood-opacity="0" result="BackgroundImageFix"/><feBlend in="SourceGraphic" in2="BackgroundImageFix" result="shape"/><feGaussianBlur stdDeviation="6.5" result="effect1_foregroundBlur_503_34"/></filter></defs></svg>