<svg width="1582" height="1742" viewBox="0 0 1582 1742" fill="none" xmlns="http://www.w3.org/2000/svg">
<circle cx="791" cy="1542" r="165" fill="white" stroke="black" stroke-width="70"/>
<path d="M870.5 171.272V216.272H915.5C1135.55 216.272 1313.93 394.655 1313.93 614.702V1094.72C1313.93 1214.27 1376.71 1325.03 1479.28 1386.44L1507.33 1403.24C1525.74 1414.25 1537 1434.12 1537 1455.57V1542C1537 1544.76 1534.76 1547 1532 1547H233.574H50C47.2386 1547 45 1544.76 45 1542V1470.91C45 1440.41 61.3359 1412.26 87.8091 1397.12L107.337 1385.95C213.23 1325.41 278.574 1212.77 278.574 1090.79V616.928C278.574 395.206 458.65 215.641 680.372 216.272L725.5 216.4V171.272V64C725.5 53.5066 734.007 45 744.5 45H797.5H851.5C861.993 45 870.5 53.5066 870.5 64V171.272Z" fill="white" stroke="black" stroke-width="90"/>
<ellipse cx="798.5" cy="205" rx="51.5" ry="144" fill="white"/>
</svg>
