<svg width="110" height="70" fill="none" xmlns="http://www.w3.org/2000/svg"><path fill="#A91E25" d="M0 64.615h110V70H0z"/><path fill="#fff" d="M0 59.231h110v5.385H0z"/><path fill="#A91E25" d="M0 53.846h110v5.385H0z"/><path fill="#fff" d="M0 48.462h110v5.385H0z"/><path fill="#A91E25" d="M0 43.077h110v5.385H0z"/><path fill="#fff" d="M0 37.692h110v5.385H0z"/><path fill="#A91E25" d="M0 32.308h110v5.385H0z"/><path fill="#fff" d="M0 26.923h110v5.385H0z"/><path fill="#A91E25" d="M0 21.538h110v5.385H0z"/><path fill="#fff" d="M0 16.154h110v5.385H0z"/><path fill="#A91E25" d="M0 10.769h110v5.385H0z"/><path fill="#fff" d="M0 5.385h110v5.385H0z"/><path fill="#A91E25" d="M0 0h110v5.385H0z"/><path fill="#2F4691" d="M0 0h51.333v37.5H0z"/><path fill-rule="evenodd" clip-rule="evenodd" d="M4 31l.472 1.528H6l-1.236.944L5.236 35 4 34.056 2.764 35l.472-1.528L2 32.528h1.528L4 31zm43 0l.472 1.528H49l-1.236.944.472 1.528L47 34.056 45.764 35l.472-1.528L45 32.528h1.528L47 31zm-37 0l.472 1.528H12l-1.236.944.472 1.528L10 34.056 8.764 35l.472-1.528L8 32.528h1.528L10 31zm7 0l.472 1.528H19l-1.236.944.472 1.528L17 34.056 15.764 35l.472-1.528L15 32.528h1.528L17 31zm6 0l.472 1.528H25l-1.236.944.472 1.528L23 34.056 21.764 35l.472-1.528L21 32.528h1.528L23 31zm6 0l.472 1.528H31l-1.236.944.472 1.528L29 34.056 27.764 35l.472-1.528L27 32.528h1.528L29 31zm6 0l.472 1.528H37l-1.236.944.472 1.528L35 34.056 33.764 35l.472-1.528L33 32.528h1.528L35 31zm6 0l.472 1.528H43l-1.236.944.472 1.528L41 34.056 39.764 35l.472-1.528L39 32.528h1.528L41 31zM4 25l.472 1.528H6l-1.236.944L5.236 29 4 28.056 2.764 29l.472-1.528L2 26.528h1.528L4 25zm43 0l.472 1.528H49l-1.236.944.472 1.528L47 28.056 45.764 29l.472-1.528L45 26.528h1.528L47 25zm-37 0l.472 1.528H12l-1.236.944.472 1.528L10 28.056 8.764 29l.472-1.528L8 26.528h1.528L10 25zm7 0l.472 1.528H19l-1.236.944.472 1.528L17 28.056 15.764 29l.472-1.528L15 26.528h1.528L17 25zm6 0l.472 1.528H25l-1.236.944.472 1.528L23 28.056 21.764 29l.472-1.528L21 26.528h1.528L23 25zm6 0l.472 1.528H31l-1.236.944.472 1.528L29 28.056 27.764 29l.472-1.528L27 26.528h1.528L29 25zm6 0l.472 1.528H37l-1.236.944.472 1.528L35 28.056 33.764 29l.472-1.528L33 26.528h1.528L35 25zm6 0l.472 1.528H43l-1.236.944.472 1.528L41 28.056 39.764 29l.472-1.528L39 26.528h1.528L41 25zM4 19l.472 1.528H6l-1.236.944L5.236 23 4 22.056 2.764 23l.472-1.528L2 20.528h1.528L4 19zm43 0l.472 1.528H49l-1.236.944.472 1.528L47 22.056 45.764 23l.472-1.528L45 20.528h1.528L47 19zm-37 0l.472 1.528H12l-1.236.944.472 1.528L10 22.056 8.764 23l.472-1.528L8 20.528h1.528L10 19zm7 0l.472 1.528H19l-1.236.944.472 1.528L17 22.056 15.764 23l.472-1.528L15 20.528h1.528L17 19zm6 0l.472 1.528H25l-1.236.944.472 1.528L23 22.056 21.764 23l.472-1.528L21 20.528h1.528L23 19zm6 0l.472 1.528H31l-1.236.944.472 1.528L29 22.056 27.764 23l.472-1.528L27 20.528h1.528L29 19zm6 0l.472 1.528H37l-1.236.944.472 1.528L35 22.056 33.764 23l.472-1.528L33 20.528h1.528L35 19zm6 0l.472 1.528H43l-1.236.944.472 1.528L41 22.056 39.764 23l.472-1.528L39 20.528h1.528L41 19zM4 2l.472 1.528H6l-1.236.944L5.236 6 4 5.056 2.764 6l.472-1.528L2 3.528h1.528L4 2zm43 0l.472 1.528H49l-1.236.944L48.236 6 47 5.056 45.764 6l.472-1.528L45 3.528h1.528L47 2zM10 2l.472 1.528H12l-1.236.944L11.236 6 10 5.056 8.764 6l.472-1.528L8 3.528h1.528L10 2zm7 0l.472 1.528H19l-1.236.944L18.236 6 17 5.056 15.764 6l.472-1.528L15 3.528h1.528L17 2zm6 0l.472 1.528H25l-1.236.944L24.236 6 23 5.056 21.764 6l.472-1.528L21 3.528h1.528L23 2zm6 0l.472 1.528H31l-1.236.944L30.236 6 29 5.056 27.764 6l.472-1.528L27 3.528h1.528L29 2zm6 0l.472 1.528H37l-1.236.944L36.236 6 35 5.056 33.764 6l.472-1.528L33 3.528h1.528L35 2zm6 0l.472 1.528H43l-1.236.944L42.236 6 41 5.056 39.764 6l.472-1.528L39 3.528h1.528L41 2zM4 8l.472 1.528H6l-1.236.944L5.236 12 4 11.056 2.764 12l.472-1.528L2 9.528h1.528L4 8zm43 0l.472 1.528H49l-1.236.944.472 1.528L47 11.056 45.764 12l.472-1.528L45 9.528h1.528L47 8zM10 8l.472 1.528H12l-1.236.944.472 1.528L10 11.056 8.764 12l.472-1.528L8 9.528h1.528L10 8zm7 0l.472 1.528H19l-1.236.944.472 1.528L17 11.056 15.764 12l.472-1.528L15 9.528h1.528L17 8zm6 0l.472 1.528H25l-1.236.944.472 1.528L23 11.056 21.764 12l.472-1.528L21 9.528h1.528L23 8zm6 0l.472 1.528H31l-1.236.944.472 1.528L29 11.056 27.764 12l.472-1.528L27 9.528h1.528L29 8zm6 0l.472 1.528H37l-1.236.944.472 1.528L35 11.056 33.764 12l.472-1.528L33 9.528h1.528L35 8zm6 0l.472 1.528H43l-1.236.944.472 1.528L41 11.056 39.764 12l.472-1.528L39 9.528h1.528L41 8zM4 14l.472 1.528H6l-1.236.944L5.236 18 4 17.056 2.764 18l.472-1.528L2 15.528h1.528L4 14zm43 0l.472 1.528H49l-1.236.944.472 1.528L47 17.056 45.764 18l.472-1.528L45 15.528h1.528L47 14zm-37 0l.472 1.528H12l-1.236.944.472 1.528L10 17.056 8.764 18l.472-1.528L8 15.528h1.528L10 14zm7 0l.472 1.528H19l-1.236.944.472 1.528L17 17.056 15.764 18l.472-1.528L15 15.528h1.528L17 14zm6 0l.472 1.528H25l-1.236.944.472 1.528L23 17.056 21.764 18l.472-1.528L21 15.528h1.528L23 14zm6 0l.472 1.528H31l-1.236.944.472 1.528L29 17.056 27.764 18l.472-1.528L27 15.528h1.528L29 14zm6 0l.472 1.528H37l-1.236.944.472 1.528L35 17.056 33.764 18l.472-1.528L33 15.528h1.528L35 14zm6 0l.472 1.528H43l-1.236.944.472 1.528L41 17.056 39.764 18l.472-1.528L39 15.528h1.528L41 14z" fill="#fff"/></svg>