<svg width="56" height="51" viewBox="0 0 56 51" fill="none" xmlns="http://www.w3.org/2000/svg">
<rect x="1" y="10" width="50" height="37" rx="5" fill="#D9D9D9"/>
<path d="M1.51226 16.5013L1.50769 14.0072C1.50364 11.7953 3.29558 9.99995 5.50752 9.99986L10 9.99968L45.0424 9.99968C48.3561 9.99968 51.0424 12.686 51.0424 15.9997L51.0424 19.6932" stroke="black"/>
<rect x="32.2161" y="1.78162" width="17.8822" height="37.3038" transform="rotate(47.5137 32.2161 1.78162)" fill="#D9D9D9" stroke="black"/>
<rect x="31.3398" y="4.68032" width="0.314703" height="29.1498" transform="rotate(47.5137 31.3398 4.68032)" fill="#D9D9D9" stroke="black" stroke-width="0.314703"/>
<rect x="41.1172" y="15.3561" width="0.314703" height="30.3284" transform="rotate(47.5137 41.1172 15.3561)" fill="#D9D9D9" stroke="black" stroke-width="0.314703"/>
<rect x="33.9098" y="5.7267" width="9.77586" height="0.294645" transform="rotate(47.5137 33.9098 5.7267)" fill="#D9D9D9" stroke="black" stroke-width="0.294645"/>
<rect x="10.0084" y="27.6173" width="9.77586" height="0.294645" transform="rotate(47.5137 10.0084 27.6173)" fill="#D9D9D9" stroke="black" stroke-width="0.294645"/>
<mask id="path-8-inside-1_542_46" fill="white">
<path d="M41.2811 15.5263C41.1012 15.6317 40.896 15.6902 40.6826 15.697C40.4692 15.7037 40.2537 15.6585 40.054 15.5651C39.8543 15.4716 39.676 15.3326 39.5341 15.1597C39.3922 14.9867 39.2906 14.7847 39.2378 14.5704C39.185 14.356 39.1825 14.1356 39.2306 13.9273C39.2786 13.719 39.3757 13.5288 39.5139 13.3726C39.6522 13.2163 39.8275 13.0984 40.0254 13.0287C40.2233 12.9589 40.438 12.9394 40.6519 12.9716L40.6058 13.563C40.4853 13.5448 40.3642 13.5559 40.2527 13.5952C40.1411 13.6345 40.0423 13.7009 39.9644 13.789C39.8865 13.8771 39.8317 13.9843 39.8046 14.1017C39.7776 14.2191 39.779 14.3434 39.8087 14.4642C39.8385 14.585 39.8957 14.6989 39.9758 14.7964C40.0558 14.8939 40.1562 14.9722 40.2688 15.0249C40.3814 15.0776 40.5028 15.103 40.6231 15.0992C40.7434 15.0954 40.8591 15.0625 40.9605 15.003L41.2811 15.5263Z"/>
</mask>
<path d="M41.2811 15.5263C41.1012 15.6317 40.896 15.6902 40.6826 15.697C40.4692 15.7037 40.2537 15.6585 40.054 15.5651C39.8543 15.4716 39.676 15.3326 39.5341 15.1597C39.3922 14.9867 39.2906 14.7847 39.2378 14.5704C39.185 14.356 39.1825 14.1356 39.2306 13.9273C39.2786 13.719 39.3757 13.5288 39.5139 13.3726C39.6522 13.2163 39.8275 13.0984 40.0254 13.0287C40.2233 12.9589 40.438 12.9394 40.6519 12.9716L40.6058 13.563C40.4853 13.5448 40.3642 13.5559 40.2527 13.5952C40.1411 13.6345 40.0423 13.7009 39.9644 13.789C39.8865 13.8771 39.8317 13.9843 39.8046 14.1017C39.7776 14.2191 39.779 14.3434 39.8087 14.4642C39.8385 14.585 39.8957 14.6989 39.9758 14.7964C40.0558 14.8939 40.1562 14.9722 40.2688 15.0249C40.3814 15.0776 40.5028 15.103 40.6231 15.0992C40.7434 15.0954 40.8591 15.0625 40.9605 15.003L41.2811 15.5263Z" fill="white" stroke="black" stroke-width="2" mask="url(#path-8-inside-1_542_46)"/>
<path d="M33.8865 5.49809C33.8579 5.68103 33.79 5.85306 33.6873 6.00246C33.5847 6.15187 33.4496 6.27515 33.2914 6.36391C33.1332 6.45268 32.9555 6.50485 32.7705 6.51687C32.5855 6.52889 32.3974 6.50049 32.2191 6.43359C32.0408 6.36669 31.8765 6.26286 31.7373 6.12918C31.5981 5.99549 31.4873 5.83508 31.4124 5.65886C31.3375 5.48263 31.3004 5.29474 31.3034 5.10795C31.3065 4.92116 31.3497 4.73986 31.4301 4.57639L31.8975 4.83082C31.8491 4.92912 31.8231 5.03815 31.8213 5.15048C31.8194 5.2628 31.8418 5.3758 31.8868 5.48177C31.9318 5.58775 31.9985 5.68421 32.0822 5.76461C32.1659 5.845 32.2647 5.90744 32.3719 5.94767C32.4792 5.9879 32.5923 6.00499 32.7035 5.99775C32.8148 5.99052 32.9216 5.95915 33.0168 5.90577C33.1119 5.85239 33.1931 5.77825 33.2549 5.68841C33.3166 5.59856 33.3575 5.49511 33.3746 5.3851L33.8865 5.49809Z" fill="black"/>
<path d="M34.9979 13.2402C34.3841 13.8024 33.352 13.7565 32.6955 13.0397C32.039 12.3229 32.0837 11.2908 32.6976 10.7286C33.3115 10.1663 34.3435 10.2122 35 10.929C35.6565 11.6458 35.6118 12.6779 34.9979 13.2402Z" fill="#D9D9D9" stroke="black"/>
<rect x="18.6032" y="0.960888" width="18.2601" height="37.3966" transform="rotate(23.5551 18.6032 0.960888)" fill="#D9D9D9" stroke="black"/>
<rect x="19.0127" y="3.99154" width="0.321002" height="29.2149" transform="rotate(23.5551 19.0127 3.99154)" fill="#D9D9D9" stroke="black" stroke-width="0.321002"/>
<rect x="32.5488" y="9.89193" width="0.321002" height="30.3963" transform="rotate(23.5551 32.5488 9.89193)" fill="#D9D9D9" stroke="black" stroke-width="0.321002"/>
<rect x="21.8332" y="3.91802" width="9.97671" height="0.295359" transform="rotate(23.5551 21.8332 3.91802)" fill="#D9D9D9" stroke="black" stroke-width="0.295359"/>
<rect x="8.84882" y="33.6993" width="9.97671" height="0.295359" transform="rotate(23.5551 8.84882 33.6993)" fill="#D9D9D9" stroke="black" stroke-width="0.295359"/>
<mask id="path-16-inside-2_542_46" fill="white">
<path d="M32.7736 9.98191C32.651 10.1514 32.4853 10.2879 32.2903 10.3799C32.0953 10.472 31.8766 10.517 31.6524 10.5113C31.4281 10.5056 31.2047 10.4493 31.0006 10.347C30.7966 10.2448 30.6178 10.0995 30.4791 9.92332C30.3404 9.74713 30.2457 9.54505 30.2029 9.33384C30.1602 9.12263 30.1706 8.90835 30.2332 8.70878C30.2959 8.5092 30.409 8.33007 30.5632 8.18621C30.7174 8.04236 30.9083 7.93793 31.12 7.88157L31.3251 8.44496C31.2058 8.47672 31.0982 8.53559 31.0112 8.61667C30.9243 8.69776 30.8605 8.79874 30.8252 8.91123C30.7899 9.02373 30.7841 9.14451 30.8082 9.26356C30.8323 9.38262 30.8856 9.49652 30.9638 9.59584C31.042 9.69515 31.1428 9.77702 31.2578 9.83466C31.3728 9.8923 31.4987 9.92405 31.6252 9.92728C31.7516 9.9305 31.8749 9.90512 31.9848 9.85322C32.0947 9.80133 32.1881 9.72442 32.2572 9.62886L32.7736 9.98191Z"/>
</mask>
<path d="M32.7736 9.98191C32.651 10.1514 32.4853 10.2879 32.2903 10.3799C32.0953 10.472 31.8766 10.517 31.6524 10.5113C31.4281 10.5056 31.2047 10.4493 31.0006 10.347C30.7966 10.2448 30.6178 10.0995 30.4791 9.92332C30.3404 9.74713 30.2457 9.54505 30.2029 9.33384C30.1602 9.12263 30.1706 8.90835 30.2332 8.70878C30.2959 8.5092 30.409 8.33007 30.5632 8.18621C30.7174 8.04236 30.9083 7.93793 31.12 7.88157L31.3251 8.44496C31.2058 8.47672 31.0982 8.53559 31.0112 8.61667C30.9243 8.69776 30.8605 8.79874 30.8252 8.91123C30.7899 9.02373 30.7841 9.14451 30.8082 9.26356C30.8323 9.38262 30.8856 9.49652 30.9638 9.59584C31.042 9.69515 31.1428 9.77702 31.2578 9.83466C31.3728 9.8923 31.4987 9.92405 31.6252 9.92728C31.7516 9.9305 31.8749 9.90512 31.9848 9.85322C32.0947 9.80133 32.1881 9.72442 32.2572 9.62886L32.7736 9.98191Z" fill="white" stroke="black" stroke-width="2" mask="url(#path-16-inside-2_542_46)"/>
<path d="M21.7169 3.71723C21.7671 3.89724 21.7762 4.08304 21.7436 4.26199C21.711 4.44094 21.6375 4.60884 21.528 4.75426C21.4185 4.89968 21.2757 5.01922 21.1092 5.10474C20.9428 5.19026 20.7565 5.23975 20.5632 5.24984C20.37 5.25994 20.1741 5.23041 19.9891 5.16325C19.804 5.0961 19.6341 4.9929 19.4909 4.86067C19.3477 4.72845 19.2345 4.57031 19.1591 4.397C19.0837 4.22369 19.0478 4.03929 19.0538 3.85634L19.5936 3.90271C19.59 4.01273 19.6116 4.12362 19.6569 4.22784C19.7023 4.33206 19.7703 4.42716 19.8565 4.50668C19.9426 4.58619 20.0448 4.64825 20.1561 4.68864C20.2673 4.72902 20.3851 4.74678 20.5013 4.74071C20.6176 4.73464 20.7296 4.70488 20.8297 4.65345C20.9298 4.60202 21.0157 4.53014 21.0815 4.44268C21.1473 4.35523 21.1916 4.25426 21.2112 4.14665C21.2308 4.03904 21.2253 3.9273 21.1951 3.81905L21.7169 3.71723Z" fill="black"/>
<path d="M26.001 10.4064C25.6704 11.1648 24.6943 11.5467 23.7731 11.1452C22.852 10.7436 22.4675 9.76849 22.7981 9.01009C23.1287 8.25169 24.1049 7.86978 25.026 8.27135C25.9471 8.67292 26.3316 9.64801 26.001 10.4064Z" fill="#D9D9D9" stroke="black"/>
<path d="M1.5 14.6292C2.92991 16.3111 5.04375 17.3134 7.30662 17.3128L7.5 17.3128H7.50012H50C51.933 17.3128 53.5 18.8798 53.5 20.8128V48C53.5 49.3807 52.3807 50.5 51 50.5H4C2.61929 50.5 1.5 49.3807 1.5 48V14.6292Z" fill="#D9D9D9" stroke="black"/>
<path d="M44 29.5H53C54.3807 29.5 55.5 30.6193 55.5 32V35C55.5 36.3807 54.3807 37.5 53 37.5H44C43.1716 37.5 42.5 36.8284 42.5 36V31C42.5 30.1716 43.1716 29.5 44 29.5Z" fill="#D9D9D9" stroke="black"/>
<circle cx="46.5" cy="33.5" r="2" fill="#D9D9D9" stroke="black"/>
</svg>
